<svg width="1024" height="1024" viewBox="0 0 1024 1024" fill="none" xmlns="http://www.w3.org/2000/svg">
<path d="M394.236 227.142C407.858 227.143 419.955 235.857 424.264 248.778L441.481 300.458C445.79 313.38 457.888 322.094 471.509 322.095H552.491C566.112 322.094 578.21 313.38 582.519 300.458L599.735 248.778C604.044 235.857 616.142 227.143 629.763 227.142H679.094C692.716 227.143 704.813 235.857 709.123 248.778L728.054 305.605C731.476 315.871 739.919 323.689 750.417 326.314L836.19 347.749C850.278 351.273 860.16 363.935 860.16 378.457V645.543C860.16 660.065 850.278 672.727 836.19 676.251L750.417 697.686C739.919 700.311 731.476 708.129 728.054 718.395L709.123 775.222C704.813 788.143 692.716 796.857 679.094 796.858H629.763C616.142 796.857 604.044 788.143 599.735 775.222L589.195 743.571C582.364 723.078 597.608 701.91 619.208 701.905H701.905C719.386 701.905 733.556 687.735 733.556 670.255V353.745C733.556 336.265 719.386 322.095 701.905 322.095H606.953C589.472 322.095 575.302 336.265 575.302 353.745V575.302C575.302 592.782 561.131 606.953 543.651 606.953H480.349C462.869 606.953 448.698 592.782 448.698 575.302V353.745C448.698 336.265 434.527 322.095 417.047 322.095H322.094C304.614 322.095 290.443 336.265 290.443 353.745V670.255C290.443 687.735 304.614 701.905 322.094 701.905H404.792C426.392 701.91 441.635 723.078 434.804 743.571L424.264 775.222C419.955 788.143 407.858 796.857 394.236 796.858H344.905C331.284 796.857 319.186 788.143 314.877 775.222L295.945 718.395C292.523 708.129 284.081 700.311 273.583 697.686L187.81 676.251C173.722 672.727 163.84 660.065 163.84 645.543V378.457C163.84 363.935 173.722 351.273 187.81 347.749L273.583 326.314C284.081 323.689 292.523 315.871 295.945 305.605L314.877 248.778C319.186 235.857 331.284 227.143 344.905 227.142H394.236Z" fill="#00EB81"/>
</svg>
